# xmcd
#
# Track frame offsets:
#	150
#	18606
#	35495
#	62368
#	77023
#	93148
#	111285
#	131886
#	146847
#	165413
#	192125
#	211937
#	236280
#	258568
#	273409
#	293205
#	309586
#	331694
#
# Disc length: 4653 seconds
#
# Revision: 0
# Processed by: cddbd v1.5.1PL0 Copyright (c) Steve Scherf et al.
# Submitted via: dBpowerAMP V4.0
#
DISCID=fa122b12
DTITLE=Indroneel - Jeebonpurer Pothik
DYEAR=2004
DGENRE=Folklore
TTITLE0=Bolaka O Bolaka
TTITLE1=Boshundhorar Buke
TTITLE2=Dil Ki Doya Hoy Na
TTITLE3=Rim Jhim Jhim Borosha
TTITLE4=Ei To Besh
TTITLE5=Ei To Noy Shudhu Gaan
TTITLE6=Aamar Gopon Premer Kotha
TTITLE7=Jeebonpurer Pothik
TTITLE8=Ke Jeno Amay Daake
TTITLE9=Rim Jhim Boroshay
TTITLE10=Moon Dile Moon
TTITLE11=Shokhinar Kopaler Tip
TTITLE12=Nodir Dhare
TTITLE13=Oi Meghe Meghe Cheye Gelo
TTITLE14=Onek Raat
TTITLE15=Preem Ek Baar Eshe Chilo Nirobe
TTITLE16=Rinik Jhinik Du Chokhe Kajol
TTITLE17=Shwapno Jagano Raat
EXTD=
EXTT0=
EXTT1=
EXTT2=
EXTT3=
EXTT4=
EXTT5=
EXTT6=
EXTT7=
EXTT8=
EXTT9=
EXTT10=
EXTT11=
EXTT12=
EXTT13=
EXTT14=
EXTT15=
EXTT16=
EXTT17=
PLAYORDER=
